<?xml version="1.0" encoding="UTF-8"?>
<svg version="1.1" xmlns="http://www.w3.org/2000/svg" width="512" height="512" viewBox="0 0 512 512" overflow="hidden">
	<defs>
		<clipPath id="roundedFaviconClip" clipPathUnits="userSpaceOnUse">
			<rect x="0" y="0" width="512" height="512" rx="80" ry="80" />
		</clipPath>
	</defs>

	<g clip-path="url(#roundedFaviconClip)">
		<rect x="0" y="0" width="512" height="512" rx="80" ry="80" fill="#FFFFFF" />
		<g transform="translate(256 256) scale(0.70) translate(-256 -256)">
			<g transform="translate(-520 -255)">
<path d="M0 0 C1.37206338 -0.00517757 2.74412376 -0.01120673 4.11618006 -0.0180068 C7.86311544 -0.03403332 11.60997396 -0.03771955 15.35693955 -0.03920174 C19.40764785 -0.04292286 23.45831717 -0.05802758 27.50900269 -0.07147217 C36.35657322 -0.09856035 45.20412554 -0.11067634 54.05173063 -0.11949348 C59.58479028 -0.12503239 65.11784301 -0.13350968 70.65089798 -0.14250183 C85.9945119 -0.16687833 101.3381203 -0.18747778 116.68175316 -0.19425201 C117.66255286 -0.19469115 118.64335257 -0.19513028 119.65387348 -0.19558272 C120.63691592 -0.19601927 121.61995836 -0.19645583 122.63278997 -0.19690561 C124.62454756 -0.19779252 126.61630516 -0.19868565 128.60806274 -0.19958496 C129.59602685 -0.20002782 130.58399096 -0.20047068 131.60189338 -0.20092696 C147.59248372 -0.20881458 163.58289132 -0.24370099 179.57341115 -0.29030401 C196.02229204 -0.33785263 212.47108148 -0.36266127 228.92003214 -0.36498785 C238.14269578 -0.36681472 247.36512132 -0.37815042 256.58771896 -0.41462708 C264.44454016 -0.4455941 272.3010497 -0.45557395 280.15792041 -0.43915087 C284.158579 -0.43139499 288.15861163 -0.43291069 292.15919113 -0.46126556 C317.78668771 -0.63244881 341.06961131 1.98669689 361.25210571 19.28088379 C362.06421509 19.9370166 362.87632446 20.59314941 363.71304321 21.26916504 C377.77754616 33.10498521 387.7837655 51.00883312 390.25210571 69.28088379 C390.39505084 72.35476692 390.39567052 75.42468558 390.39254761 78.50149536 C390.39700429 79.88080925 390.39700429 79.88080925 390.40155101 81.28798807 C390.410212 84.36456805 390.41174406 87.441109 390.41323853 90.5177002 C390.41786857 92.7256885 390.42289348 94.93367601 390.42828369 97.1416626 C390.4413925 103.13778927 390.4478498 109.13390475 390.45229435 115.13004351 C390.45522778 118.87870337 390.45933313 122.62736019 390.46379852 126.37601852 C390.47590451 136.76806037 390.48628728 147.16010007 390.48967361 157.55214882 C390.48989318 158.21659949 390.49011275 158.88105016 390.49033897 159.5656357 C390.49055724 160.23161984 390.49077552 160.89760397 390.49100041 161.58376944 C390.49144387 162.93316563 390.49189043 164.28256182 390.49234009 165.63195801 C390.49256152 166.30129621 390.49278295 166.97063442 390.49301109 167.6602556 C390.49695573 178.49616336 390.51440114 189.33200374 390.53769961 200.1678855 C390.56146195 211.31005456 390.57362016 222.45219911 390.57504153 233.594396 C390.57608802 239.84338226 390.5819625 246.09227345 390.59986115 252.34123611 C390.61638069 258.22308303 390.61847841 264.10476378 390.60972214 269.98662567 C390.60895382 272.13919648 390.61326722 274.29177637 390.62318039 276.44432449 C390.71306916 297.18799667 390.71306916 297.18799667 387.25210571 307.28088379 C386.87569946 308.46682129 386.49929321 309.65275879 386.11148071 310.87463379 C377.53473121 333.3433015 362.69227043 350.3328905 341.06460571 360.96838379 C334.07155119 364.03037154 326.66834115 365.5942483 319.25210571 367.28088379 C318.61366856 367.46016639 317.9752314 367.63944899 317.31744766 367.82416439 C315.04737063 368.32615788 313.02702415 368.39690379 310.70272827 368.38526917 C309.3408287 368.38261047 309.3408287 368.38261047 307.95141602 368.37989807 C306.9623526 368.37308517 305.97328918 368.36627228 304.95425415 368.35925293 C302.78219655 368.35313599 300.6101384 368.34720932 298.43807983 368.34144592 C297.28591728 368.3367737 296.13375473 368.33210148 294.94667816 368.32728767 C288.82451484 368.30808096 282.70240313 368.32333137 276.58023071 368.33361816 C268.79876944 368.34583464 261.01785585 368.34772901 253.23648071 368.30505371 C246.94209538 368.27144717 240.64879205 368.27725741 234.35440826 368.30862236 C231.96728437 368.31351658 229.58008535 368.30441299 227.19307709 368.28041267 C212.41836054 368.14069059 201.811069 369.29981675 189.25210571 377.28088379 C187.04852968 378.51560913 184.82140149 379.6983452 182.59194946 380.88635254 C180.45573596 382.07660369 178.32165073 383.27068184 176.18960571 384.46838379 C175.02470398 385.11950844 173.85966169 385.7703817 172.69448853 386.42102051 C161.52322182 392.66532754 150.38438239 398.9674038 139.25210571 405.28088379 C125.93475164 412.83359299 112.58679434 420.3258863 99.19448853 427.74499512 C92.01740274 431.72715017 84.87228362 435.76043498 77.75210571 439.84338379 C76.46384888 440.57875366 76.46384888 440.57875366 75.14956665 441.32897949 C71.67192971 443.31448036 68.1999884 445.305114 64.75991821 447.35510254 C59.7797234 450.25009383 56.18651545 452.32813257 50.25210571 451.28088379 C45.57997117 449.50547266 42.45658263 447.10845344 39.25210571 443.28088379 C37.26773991 438.61556286 37.0341327 434.46042986 37.24038696 429.47229004 C37.262724 428.7203688 37.28506104 427.96844757 37.30807495 427.19374084 C37.3833289 424.74317032 37.4738425 422.29342453 37.56460571 419.84338379 C37.61954488 418.14859119 37.67349028 416.45376609 37.72647095 414.75891113 C37.83639952 411.29969432 37.95257364 407.84077707 38.07437134 404.38195801 C38.24441196 399.54783133 38.39923265 394.71333289 38.54898071 389.87854004 C38.77317653 382.67896403 39.00837917 375.47982912 39.25210571 368.28088379 C38.646483 368.28976624 38.04086029 368.29864868 37.41688538 368.30780029 C31.04019739 368.3971783 24.66369093 368.45698793 18.28652954 368.50061035 C15.91536211 368.52056723 13.54424287 368.54774256 11.17324829 368.5826416 C-14.33374673 368.94833329 -14.33374673 368.94833329 -26.74789429 364.28088379 C-27.59505005 363.96731934 -28.44220581 363.65375488 -29.31503296 363.33068848 C-31.44645357 362.47508749 -33.4993119 361.54291227 -35.56039429 360.53088379 C-36.27195679 360.18799316 -36.98351929 359.84510254 -37.71664429 359.49182129 C-43.73565252 356.48779897 -48.76150301 352.79618997 -53.74789429 348.28088379 C-54.87904663 347.36049316 -54.87904663 347.36049316 -56.03305054 346.42150879 C-74.01763469 331.49091062 -81.98630374 309.90109381 -84.74789429 287.28088379 C-84.88334588 284.35854508 -84.88732847 281.44131417 -84.88160706 278.51620483 C-84.88387261 277.65776667 -84.88613817 276.7993285 -84.88847238 275.91487706 C-84.89478012 273.0510256 -84.89398508 270.18722187 -84.89315796 267.32336426 C-84.89615152 265.26463256 -84.89955451 263.20590142 -84.90333557 261.14717102 C-84.9121612 255.56217703 -84.91451313 249.97719837 -84.91515136 244.39219809 C-84.91586285 240.89897725 -84.9179991 237.4057603 -84.92064857 233.91254044 C-84.92989833 221.7143555 -84.93398406 209.51618149 -84.93319702 197.31799316 C-84.93259682 185.96699788 -84.94313821 174.61605022 -84.95894068 163.26506698 C-84.97204146 153.50514086 -84.97737983 143.74523025 -84.97674161 133.98529541 C-84.9764873 128.16276572 -84.97930112 122.34027832 -84.98991966 116.51775742 C-84.99964298 111.03645668 -84.9996509 105.5552383 -84.99240303 100.07393456 C-84.99136233 98.07014151 -84.99368925 96.06634323 -84.99976349 94.06255913 C-85.07633493 67.03698139 -79.62598281 43.55579258 -60.25570679 23.73010254 C-43.18704037 7.42828925 -23.33336523 -0.03217354 0 0 Z " fill="#FDFDFD" transform="translate(614.7478942871094,285.7191162109375)"/>
<path d="M0 0 C1.37206338 -0.00517757 2.74412376 -0.01120673 4.11618006 -0.0180068 C7.86311544 -0.03403332 11.60997396 -0.03771955 15.35693955 -0.03920174 C19.40764785 -0.04292286 23.45831717 -0.05802758 27.50900269 -0.07147217 C36.35657322 -0.09856035 45.20412554 -0.11067634 54.05173063 -0.11949348 C59.58479028 -0.12503239 65.11784301 -0.13350968 70.65089798 -0.14250183 C85.9945119 -0.16687833 101.3381203 -0.18747778 116.68175316 -0.19425201 C117.66255286 -0.19469115 118.64335257 -0.19513028 119.65387348 -0.19558272 C120.63691592 -0.19601927 121.61995836 -0.19645583 122.63278997 -0.19690561 C124.62454756 -0.19779252 126.61630516 -0.19868565 128.60806274 -0.19958496 C129.59602685 -0.20002782 130.58399096 -0.20047068 131.60189338 -0.20092696 C147.59248372 -0.20881458 163.58289132 -0.24370099 179.57341115 -0.29030401 C196.02229204 -0.33785263 212.47108148 -0.36266127 228.92003214 -0.36498785 C238.14269578 -0.36681472 247.36512132 -0.37815042 256.58771896 -0.41462708 C264.44454016 -0.4455941 272.3010497 -0.45557395 280.15792041 -0.43915087 C284.158579 -0.43139499 288.15861163 -0.43291069 292.15919113 -0.46126556 C317.78668771 -0.63244881 341.06961131 1.98669689 361.25210571 19.28088379 C362.06421509 19.9370166 362.87632446 20.59314941 363.71304321 21.26916504 C377.77754616 33.10498521 387.7837655 51.00883312 390.25210571 69.28088379 C390.39505084 72.35476692 390.39567052 75.42468558 390.39254761 78.50149536 C390.39700429 79.88080925 390.39700429 79.88080925 390.40155101 81.28798807 C390.410212 84.36456805 390.41174406 87.441109 390.41323853 90.5177002 C390.41786857 92.7256885 390.42289348 94.93367601 390.42828369 97.1416626 C390.4413925 103.13778927 390.4478498 109.13390475 390.45229435 115.13004351 C390.45522778 118.87870337 390.45933313 122.62736019 390.46379852 126.37601852 C390.47590451 136.76806037 390.48628728 147.16010007 390.48967361 157.55214882 C390.48989318 158.21659949 390.49011275 158.88105016 390.49033897 159.5656357 C390.49055724 160.23161984 390.49077552 160.89760397 390.49100041 161.58376944 C390.49144387 162.93316563 390.49189043 164.28256182 390.49234009 165.63195801 C390.49256152 166.30129621 390.49278295 166.97063442 390.49301109 167.6602556 C390.49695573 178.49616336 390.51440114 189.33200374 390.53769961 200.1678855 C390.56146195 211.31005456 390.57362016 222.45219911 390.57504153 233.594396 C390.57608802 239.84338226 390.5819625 246.09227345 390.59986115 252.34123611 C390.61638069 258.22308303 390.61847841 264.10476378 390.60972214 269.98662567 C390.60895382 272.13919648 390.61326722 274.29177637 390.62318039 276.44432449 C390.71306916 297.18799667 390.71306916 297.18799667 387.25210571 307.28088379 C386.87569946 308.46682129 386.49929321 309.65275879 386.11148071 310.87463379 C377.53473121 333.3433015 362.69227043 350.3328905 341.06460571 360.96838379 C334.07155119 364.03037154 326.66834115 365.5942483 319.25210571 367.28088379 C318.61366856 367.46016639 317.9752314 367.63944899 317.31744766 367.82416439 C315.04737063 368.32615788 313.02702415 368.39690379 310.70272827 368.38526917 C309.3408287 368.38261047 309.3408287 368.38261047 307.95141602 368.37989807 C306.9623526 368.37308517 305.97328918 368.36627228 304.95425415 368.35925293 C302.78219655 368.35313599 300.6101384 368.34720932 298.43807983 368.34144592 C297.28591728 368.3367737 296.13375473 368.33210148 294.94667816 368.32728767 C288.82451484 368.30808096 282.70240313 368.32333137 276.58023071 368.33361816 C268.79876944 368.34583464 261.01785585 368.34772901 253.23648071 368.30505371 C246.94209538 368.27144717 240.64879205 368.27725741 234.35440826 368.30862236 C231.96728437 368.31351658 229.58008535 368.30441299 227.19307709 368.28041267 C212.41836054 368.14069059 201.811069 369.29981675 189.25210571 377.28088379 C187.04852968 378.51560913 184.82140149 379.6983452 182.59194946 380.88635254 C180.45573596 382.07660369 178.32165073 383.27068184 176.18960571 384.46838379 C175.02470398 385.11950844 173.85966169 385.7703817 172.69448853 386.42102051 C161.52322182 392.66532754 150.38438239 398.9674038 139.25210571 405.28088379 C125.93475164 412.83359299 112.58679434 420.3258863 99.19448853 427.74499512 C92.01740274 431.72715017 84.87228362 435.76043498 77.75210571 439.84338379 C76.46384888 440.57875366 76.46384888 440.57875366 75.14956665 441.32897949 C71.67192971 443.31448036 68.1999884 445.305114 64.75991821 447.35510254 C59.7797234 450.25009383 56.18651545 452.32813257 50.25210571 451.28088379 C45.57997117 449.50547266 42.45658263 447.10845344 39.25210571 443.28088379 C37.26773991 438.61556286 37.0341327 434.46042986 37.24038696 429.47229004 C37.262724 428.7203688 37.28506104 427.96844757 37.30807495 427.19374084 C37.3833289 424.74317032 37.4738425 422.29342453 37.56460571 419.84338379 C37.61954488 418.14859119 37.67349028 416.45376609 37.72647095 414.75891113 C37.83639952 411.29969432 37.95257364 407.84077707 38.07437134 404.38195801 C38.24441196 399.54783133 38.39923265 394.71333289 38.54898071 389.87854004 C38.77317653 382.67896403 39.00837917 375.47982912 39.25210571 368.28088379 C38.646483 368.28976624 38.04086029 368.29864868 37.41688538 368.30780029 C31.04019739 368.3971783 24.66369093 368.45698793 18.28652954 368.50061035 C15.91536211 368.52056723 13.54424287 368.54774256 11.17324829 368.5826416 C-14.33374673 368.94833329 -14.33374673 368.94833329 -26.74789429 364.28088379 C-27.59505005 363.96731934 -28.44220581 363.65375488 -29.31503296 363.33068848 C-31.44645357 362.47508749 -33.4993119 361.54291227 -35.56039429 360.53088379 C-36.27195679 360.18799316 -36.98351929 359.84510254 -37.71664429 359.49182129 C-43.73565252 356.48779897 -48.76150301 352.79618997 -53.74789429 348.28088379 C-54.87904663 347.36049316 -54.87904663 347.36049316 -56.03305054 346.42150879 C-74.01763469 331.49091062 -81.98630374 309.90109381 -84.74789429 287.28088379 C-84.88334588 284.35854508 -84.88732847 281.44131417 -84.88160706 278.51620483 C-84.88387261 277.65776667 -84.88613817 276.7993285 -84.88847238 275.91487706 C-84.89478012 273.0510256 -84.89398508 270.18722187 -84.89315796 267.32336426 C-84.89615152 265.26463256 -84.89955451 263.20590142 -84.90333557 261.14717102 C-84.9121612 255.56217703 -84.91451313 249.97719837 -84.91515136 244.39219809 C-84.91586285 240.89897725 -84.9179991 237.4057603 -84.92064857 233.91254044 C-84.92989833 221.7143555 -84.93398406 209.51618149 -84.93319702 197.31799316 C-84.93259682 185.96699788 -84.94313821 174.61605022 -84.95894068 163.26506698 C-84.97204146 153.50514086 -84.97737983 143.74523025 -84.97674161 133.98529541 C-84.9764873 128.16276572 -84.97930112 122.34027832 -84.98991966 116.51775742 C-84.99964298 111.03645668 -84.9996509 105.5552383 -84.99240303 100.07393456 C-84.99136233 98.07014151 -84.99368925 96.06634323 -84.99976349 94.06255913 C-85.07633493 67.03698139 -79.62598281 43.55579258 -60.25570679 23.73010254 C-43.18704037 7.42828925 -23.33336523 -0.03217354 0 0 Z M-40.82211304 50.58166504 C-47.8721718 60.46318756 -50.89443137 70.06306312 -50.90179443 82.13290405 C-50.90617669 83.01287241 -50.91055894 83.89284077 -50.91507399 84.79947484 C-50.92840721 87.74233606 -50.93462858 90.68516737 -50.94076538 93.62805176 C-50.94867085 95.74088169 -50.95694007 97.85371028 -50.96554565 99.96653748 C-50.99172062 106.90203572 -51.00707168 113.83753984 -51.02133179 120.77307129 C-51.02669387 123.16558968 -51.03207139 125.55810805 -51.03746414 127.95062637 C-51.05908878 137.90859136 -51.07782246 147.86655476 -51.08908653 157.82453728 C-51.10530601 172.0671005 -51.13844027 186.3093901 -51.19548738 200.5518502 C-51.23427991 210.58101296 -51.25373041 220.61010283 -51.2590071 230.63933861 C-51.26264857 236.62137674 -51.2745414 242.60312271 -51.30710983 248.58507919 C-51.33735334 254.22078959 -51.3434444 259.85603353 -51.33172607 265.49180794 C-51.33150668 267.54918349 -51.33969926 269.60658172 -51.35737991 271.6638813 C-51.51143624 290.63764348 -48.5417659 307.05301183 -35.18539429 321.46838379 C-21.67372788 334.31355544 -5.89315565 336.73850571 12.18960571 336.65197754 C13.56770831 336.6586947 14.9458029 336.66728426 16.32388306 336.67762756 C21.36649847 336.71217899 26.40902677 336.71948823 31.45175171 336.7175293 C35.74827506 336.7158607 40.04413819 336.72959927 44.34051514 336.76600838 C46.33567992 336.77675442 48.33092593 336.76470954 50.32608032 336.75218201 C61.61866043 336.84540435 61.61866043 336.84540435 66.25210571 341.28088379 C69.71100692 344.9912988 70.75460172 347.19729262 70.79800415 352.26452637 C70.81772278 353.44537308 70.83744141 354.62621979 70.85775757 355.84284973 C70.85898621 357.10759628 70.86021484 358.37234283 70.86148071 359.67541504 C70.87801697 360.97790695 70.89455322 362.28039886 70.91159058 363.62236023 C70.95517921 367.07303762 70.97524383 370.52346121 70.99032593 373.97436523 C71.00992808 377.50051834 71.0518944 381.02639857 71.09194946 384.55236816 C71.1671589 391.46177029 71.21750621 398.37116219 71.25210571 405.28088379 C74.2527447 404.0963664 77.12272193 402.89413215 79.93960571 401.31994629 C80.62691772 400.93733643 81.31422974 400.55472656 82.02236938 400.16052246 C82.75818237 399.7464917 83.49399536 399.33246094 84.25210571 398.90588379 C85.03754761 398.46671631 85.8229895 398.02754883 86.63223267 397.57507324 C93.47618534 393.73893381 100.28834721 389.84718198 107.09561157 385.94641113 C113.48838902 382.28363511 119.89718968 378.65029532 126.31460571 375.03088379 C134.37893575 370.48105036 142.42651137 365.90263416 150.46310425 361.30404663 C152.24364732 360.2857213 154.02485639 359.26857143 155.80630493 358.25183105 C156.98226391 357.58055193 158.15820799 356.90924671 159.33413696 356.23791504 C159.91218079 355.90792007 160.49022461 355.57792511 161.08578491 355.2379303 C165.00652315 352.99770994 168.91767361 350.74132988 172.82632446 348.48010254 C174.86399085 347.30936595 176.90174659 346.13878487 178.93960571 344.96838379 C179.85290649 344.43535645 180.76620728 343.9023291 181.70718384 343.35314941 C182.57150024 342.85879395 183.43581665 342.36443848 184.32632446 341.85510254 C185.06455444 341.42802002 185.80278442 341.0009375 186.56338501 340.56091309 C194.27309073 336.89052472 201.04132021 335.84457714 209.54824829 335.89611816 C210.64219406 335.89074539 211.73613983 335.88537262 212.86323547 335.87983704 C215.22521518 335.87009664 217.58723052 335.86710351 219.94922829 335.87019348 C223.69616727 335.87469327 227.44263938 335.86060872 231.18952942 335.84179688 C239.14788167 335.80510402 247.10618869 335.79117261 255.06460571 335.78088379 C264.28159201 335.76895653 273.49837999 335.7470877 282.71527672 335.70088196 C286.39104249 335.68738384 290.06651378 335.69146976 293.74229431 335.69628906 C296.01745977 335.68694084 298.29262205 335.67677011 300.56777954 335.66564941 C301.57648102 335.67179764 302.5851825 335.67794586 303.62445068 335.6842804 C320.14415772 335.543525 332.66907544 329.86391406 344.25210571 318.28088379 C344.76773071 317.76525879 345.28335571 317.24963379 345.81460571 316.71838379 C357.93221403 303.38901463 357.69933026 285.7560838 357.67202759 268.91369629 C357.67937723 266.7639319 357.68796605 264.61417145 357.69769287 262.4644165 C357.71981911 256.65455405 357.72284415 250.84483379 357.72094536 245.034935 C357.72082529 240.17414923 357.72940405 235.31339319 357.73772287 230.45261574 C357.75692359 218.98193993 357.75985233 207.51133689 357.75308228 196.04064941 C357.74643833 184.22761044 357.76932802 172.41488344 357.80639601 160.60190773 C357.83712708 150.43763753 357.84844949 140.27346755 357.84455919 130.10915184 C357.84249588 124.04799357 357.84790736 117.98707839 357.87245178 111.92596436 C357.89477354 106.22613254 357.89279557 100.52680744 357.87252426 94.82697296 C357.86912428 92.74212497 357.87415938 90.65724249 357.88850784 88.5724411 C357.95930033 77.51913183 357.90341288 68.15404128 352.25210571 58.28088379 C351.78601646 57.44958954 351.31992722 56.61829529 350.83971405 55.7618103 C344.97121639 45.78194777 336.0504382 39.11652543 325.25210571 35.28088379 C324.31628253 34.93647719 323.38045935 34.5920706 322.41627789 34.23722744 C316.7034438 32.6383647 310.77040472 32.99548108 304.8870697 33.00672913 C303.52014394 33.00227308 302.15322075 32.99695783 300.78630131 32.9908604 C297.03994158 32.97671392 293.29366495 32.97501647 289.54728234 32.97545731 C285.50281259 32.97380614 281.45837678 32.96073404 277.41392517 32.94926453 C268.57497334 32.92643878 259.73604557 32.91849656 250.89706826 32.91343808 C245.37497555 32.91017831 239.85288979 32.90365415 234.33080101 32.89643669 C219.0327556 32.87687411 203.73471663 32.86046784 188.43665791 32.85756016 C187.45817556 32.85737259 186.47969322 32.85718502 185.47155989 32.85699176 C183.48805916 32.85662552 181.50455843 32.85626182 179.5210577 32.85590065 C178.04419966 32.85562644 178.04419966 32.85562644 176.5375061 32.85534668 C175.55172824 32.85516613 174.56595037 32.85498558 173.55030044 32.85479956 C157.58000482 32.8512585 141.60984409 32.82423886 125.63959525 32.78684879 C109.23152842 32.74874201 92.82352848 32.72940251 76.41541642 32.72910064 C67.20752879 32.72851662 57.99980208 32.72005987 48.79195595 32.69110298 C40.95095983 32.66655741 33.11018335 32.65932762 25.26915918 32.67435051 C21.27161213 32.6815064 17.27449853 32.68071954 13.27700043 32.65793991 C9.61070692 32.63724857 5.94517726 32.64004344 2.27889111 32.66081475 C0.33854002 32.66592519 -1.60182915 32.64660824 -3.54207915 32.62615305 C-18.28712747 32.76643213 -31.30293032 39.34559566 -40.82211304 50.58166504 Z " fill="#CE5E2F" transform="translate(614.7478942871094,285.7191162109375)"/>
<path d="M0 0 C3.70927721 1.67492556 5.61684707 4.45617004 7.9375 7.75 C10.69090863 16.17219111 6.61473342 24.22280236 3.375 31.9375 C2.57977958 33.87103269 1.78939073 35.8065 0.99920654 37.74209595 C0.39660619 39.21798935 -0.20725137 40.6933699 -0.81219482 42.16830444 C-5.29691579 53.12285708 -9.62298525 64.14124607 -13.97625732 75.14849854 C-16.49070225 81.50548662 -19.0111259 87.86010549 -21.53125 94.21484375 C-22.01218109 95.42769043 -22.49311218 96.64053711 -22.98861694 97.89013672 C-39.21493798 138.80279067 -39.21493798 138.80279067 -46 155 C-46.25056152 155.62874023 -46.50112305 156.25748047 -46.75927734 156.90527344 C-48.50828879 161.20386101 -50.07106561 163.44619265 -54 166 C-57.73052567 167.24350856 -61.12552043 167.52198871 -65 167 C-69.79765866 164.60117067 -72.565249 161.77585774 -75 157 C-75.56182886 150.96293646 -74.03858954 146.32237176 -71.9765625 140.76171875 C-71.66135651 139.88827316 -71.34615051 139.01482758 -71.02139282 138.11491394 C-67.9810849 129.77003644 -64.71693468 121.51538823 -61.37838745 113.28607178 C-59.97602853 109.82894718 -58.58414055 106.3676334 -57.1915741 102.90655518 C-56.48013705 101.13842293 -55.76823603 99.37047729 -55.05586243 97.60272217 C-51.80935316 89.54259925 -48.61473967 81.46263234 -45.4375 73.375 C-44.91914928 72.05678718 -44.40075729 70.73859059 -43.88232422 69.42041016 C-42.82339952 66.72750627 -41.76486722 64.03444851 -40.70654297 61.34130859 C-37.80545718 53.959995 -34.89979108 46.58048874 -31.99099731 39.20220947 C-31.34118012 37.55326308 -30.69181128 35.90413992 -30.04293823 34.25482178 C-28.29728495 29.81771243 -26.54413641 25.38375446 -24.77734375 20.95501709 C-24.04322693 19.1087156 -23.31820048 17.25880713 -22.59375 15.40869141 C-22.1709375 14.35214355 -21.748125 13.2955957 -21.3125 12.20703125 C-20.78076172 10.86282104 -20.78076172 10.86282104 -20.23828125 9.49145508 C-15.65655559 0.2729002 -9.73220348 -1.24870865 0 0 Z " fill="#CE5D2F" transform="translate(800,381)"/>
<path d="M0 0 C2.07981219 1.04330021 4.05053868 2.18982923 6.03466797 3.40527344 C6.78997803 3.84613281 7.54528809 4.28699219 8.32348633 4.74121094 C9.98335335 5.71248247 11.63819324 6.69238332 13.28857422 7.6796875 C16.13881511 9.37966742 19.00613999 11.04750433 21.87841797 12.70996094 C27.92257153 16.21154121 33.94946196 19.74195995 39.97216797 23.28027344 C41.18598145 23.99280273 41.18598145 23.99280273 42.42431641 24.71972656 C43.1697168 25.15736328 43.91511719 25.595 44.68310547 26.04589844 C45.39490967 26.46379639 46.10671387 26.88169434 46.84008789 27.31225586 C48.20362362 28.11474256 49.56580327 28.91953855 50.92651367 29.72680664 C54.46435957 31.82370882 58.02132914 33.87318593 61.61669922 35.87011719 C62.38699463 36.30485352 63.15729004 36.73958984 63.95092773 37.1875 C65.41168556 38.01091331 66.87920419 38.8225053 68.35473633 39.61914062 C73.13959317 42.33938264 76.4388338 45.33034539 78.97216797 50.28027344 C79.63623047 53.08886719 79.63623047 53.08886719 79.59716797 55.71777344 C79.61650391 57.01521484 79.61650391 57.01521484 79.63623047 58.33886719 C78.45690798 63.56257211 76.17042402 67.63070008 71.84082031 70.87963867 C69.22171484 72.45083979 66.56068868 73.87844104 63.84716797 75.28027344 C61.76995876 76.40215295 59.69450867 77.52729416 57.62060547 78.65527344 C56.53360352 79.24179687 55.44660156 79.82832031 54.32666016 80.43261719 C48.62444009 83.57340332 43.05576126 86.93460775 37.47216797 90.28027344 C32.97523621 92.95212975 28.47409167 95.61683857 23.97216797 98.28027344 C22.8811377 98.92722168 21.79010742 99.57416992 20.66601562 100.24072266 C17.54746051 102.08155931 14.41814244 103.90247711 11.28466797 105.71777344 C10.35912109 106.26755859 9.43357422 106.81734375 8.47998047 107.38378906 C3.18704433 110.42116822 -0.88867434 112.13185424 -7.02783203 112.28027344 C-12.16633346 110.56743963 -15.15174274 107.84817996 -18.02783203 103.28027344 C-18.953432 98.78910139 -18.63494409 95.56819325 -16.67626953 91.41308594 C-13.34287682 86.74412126 -7.99712903 84.37555036 -3.09033203 81.65527344 C-2.0287085 81.05207275 -0.96708496 80.44887207 0.12670898 79.82739258 C2.32326383 78.58054918 4.52309019 77.3394524 6.72607422 76.10400391 C9.79714428 74.37860579 12.85577182 72.63350895 15.90966797 70.87792969 C20.15249515 68.43925235 24.39675939 66.00349448 28.65527344 63.59228516 C30.27167206 62.67695047 31.8850544 61.75627769 33.49609375 60.83154297 C34.3041748 60.37247559 35.11225586 59.9134082 35.94482422 59.44042969 C36.67064697 59.02543213 37.39646973 58.61043457 38.14428711 58.18286133 C39.97216797 57.28027344 39.97216797 57.28027344 41.97216797 57.28027344 C41.97216797 56.62027344 41.97216797 55.96027344 41.97216797 55.28027344 C40.8950354 54.87192261 40.8950354 54.87192261 39.79614258 54.45532227 C36.99844555 53.29120748 34.43166793 51.959209 31.78857422 50.47949219 C30.78882568 49.92076416 29.78907715 49.36203613 28.7590332 48.78637695 C27.69499268 48.18623779 26.63095215 47.58609863 25.53466797 46.96777344 C24.43388916 46.34765381 23.33311035 45.72753418 22.19897461 45.08862305 C18.78604261 43.15944691 15.37805591 41.2218559 11.97216797 39.28027344 C10.91868164 38.68053711 9.86519531 38.08080078 8.77978516 37.46289062 C5.81600897 35.76809029 2.8612667 34.05867748 -0.09033203 32.34277344 C-0.97454834 31.83641357 -1.85876465 31.33005371 -2.76977539 30.80834961 C-16.20807844 22.91978062 -16.20807844 22.91978062 -19.02783203 17.28027344 C-19.58042095 12.24356137 -19.56712752 8.35886441 -17.27783203 3.78027344 C-12.64676001 -1.36536215 -6.50099762 -2.30736106 0 0 Z " fill="#CD5D2F" transform="translate(839.02783203125,415.7197265625)"/>
<path d="M0 0 C3.47364743 2.03140865 6.18914698 4.37829396 8 8 C8.54651477 12.47962929 8.43001211 16.04649488 6.5625 20.1875 C0.89978436 26.4026757 -6.70598897 30.00492137 -13.98461914 34.03686523 C-23.93419692 39.57937003 -33.64437452 45.53661536 -43.39135742 51.42529297 C-44.25220947 51.94494629 -45.11306152 52.46459961 -46 53 C-46.89501221 53.56219238 -47.79002441 54.12438477 -48.7121582 54.70361328 C-51 56 -51 56 -53 56 C-53 56.66 -53 57.32 -53 58 C-52.27973633 58.27368408 -51.55947266 58.54736816 -50.81738281 58.8293457 C-48.06091311 59.97468992 -45.52794328 61.27764658 -42.921875 62.73046875 C-41.44497192 63.55333374 -41.44497192 63.55333374 -39.93823242 64.39282227 C-38.88611572 64.98506592 -37.83399902 65.57730957 -36.75 66.1875 C-35.11478394 67.10776978 -35.11478394 67.10776978 -33.4465332 68.04663086 C-25.31725902 72.64563697 -17.22837262 77.31048385 -9.1875 82.0625 C-7.59663574 82.99002075 -7.59663574 82.99002075 -5.97363281 83.9362793 C-4.98588867 84.52578369 -3.99814453 85.11528809 -2.98046875 85.72265625 C-2.11317139 86.23578369 -1.24587402 86.74891113 -0.35229492 87.27758789 C3.12927631 89.82688577 5.66295241 92.40309175 6.56640625 96.68359375 C6.55455393 105.03948135 6.55455393 105.03948135 3.8125 108.5625 C-0.1543545 112.00044057 -3.47338901 113.4970107 -8.79589844 113.42919922 C-13.9827775 112.41917115 -18.48149986 109.08191289 -22.9375 106.375 C-24.09334127 105.68802303 -25.2500962 105.00258119 -26.40771484 104.31860352 C-28.78613508 102.91087281 -31.15974172 101.49551698 -33.52978516 100.07373047 C-37.72542153 97.56036375 -41.95273454 95.10241791 -46.18261719 92.6472168 C-49.12542244 90.93725453 -52.06079946 89.21500345 -54.99609375 87.4921875 C-59.19349949 85.03635461 -63.41746545 82.63450789 -67.66015625 80.2578125 C-69.29863525 79.32980835 -69.29863525 79.32980835 -70.97021484 78.38305664 C-73.05584676 77.20286563 -75.14828744 76.03459566 -77.24853516 74.88061523 C-83.01413738 71.59773986 -86.83361454 68.90703842 -90 63 C-91.08875959 57.63735185 -90.70430523 52.6535862 -88.5625 47.625 C-82.53656288 41.4520888 -74.4670338 37.4451357 -67 33.25 C-65.14014054 32.19616705 -63.2807718 31.1414676 -61.421875 30.0859375 C-60.50599609 29.56612305 -59.59011719 29.04630859 -58.64648438 28.51074219 C-52.7558645 25.14808944 -46.92440136 21.68468758 -41.08691406 18.23095703 C-38.91300639 16.9486872 -36.73447121 15.6745966 -34.5546875 14.40234375 C-33.81976074 13.97244141 -33.08483398 13.54253906 -32.32763672 13.09960938 C-30.87499192 12.25075731 -29.42091792 11.4043457 -27.96533203 10.56054688 C-23.87368773 8.171126 -19.99862616 5.60964802 -16.125 2.875 C-10.86438207 -0.49083609 -6.12668675 -1.54589774 0 0 Z " fill="#CD5D2F" transform="translate(708,415)"/>
<path d="M0 0 C0.99 0.33 1.98 0.66 3 1 C-0.63 4.63 -4.26 8.26 -8 12 C-8.66 11.67 -9.32 11.34 -10 11 C-8.89718873 9.72799029 -7.79269231 8.45744147 -6.6875 7.1875 C-6.07261719 6.47980469 -5.45773437 5.77210938 -4.82421875 5.04296875 C-3.26665665 3.29863261 -1.67341125 1.63221959 0 0 Z " fill="#CC633A" transform="translate(558,306)"/>
			</g>
		</g>
	</g>
</svg>
